<svg xmlns="http://www.w3.org/2000/svg" viewBox="0 0 100 100" width="128" height="128">
  <path d="M50 5C25.49 5 5 25.49 5 50s20.49 45 45 45 45-20.49 45-45S74.51 5 50 5zm0 85C28.22 90 10 71.78 10 50S28.22 10 50 10s40 18.22 40 40-18.22 40-40 40z" fill="#f0f0f0"/>
  <path d="M50 18c-6.63 0-12 5.37-12 12 0 3.87 1.84 7.25 4.64 9.36L50 72l7.36-32.64C60.16 37.25 62 33.87 62 30c0-6.63-5.37-12-12-12z" fill="#ff475a"/>
  <path d="M50 32c-1.65 0-3 1.35-3 3s1.35 3 3 3 3-1.35 3-3-1.35-3-3-3z" fill="#fff"/>
  <path d="M42 24h16v2H42z" fill="#ffce00"/>
</svg>